Coordinates
version=1
nRows=9
nColumns=24
inDegrees=yes

Units are S.I. units (second, meters, Newtons, ...)
Angles are in degrees.

endheader
time	pelvis_tilt	pelvis_list	pelvis_rotation	pelvis_tx	pelvis_ty	pelvis_tz	hip_flexion_r	hip_adduction_r	hip_rotation_r	knee_angle_r	ankle_angle_r	subtalar_angle_r	mtp_angle_r	hip_flexion_l	hip_adduction_l	hip_rotation_l	knee_angle_l	ankle_angle_l	subtalar_angle_l	mtp_angle_l	lumbar_extension	lumbar_bending	lumbar_rotation
      4.23500000	    -19.55621083	      3.43075133	     -6.64970781	     -1.31989908	     -0.04423990	     -0.32404817	      2.89446506	     -1.88448270	     -0.39284893	    -19.07559346	     11.03077599	     -0.25661888	     -0.06881156	     46.24387758	     -2.65471137	    -16.79385088	    -13.25910997	     -3.91076719	      5.52742277	     21.88982827	     20.49728049	     -3.23222187	     -6.12196149
      4.24000000	    -19.49594974	      3.69597922	     -6.66074469	     -1.31223049	     -0.04495652	     -0.32462287	      2.83564807	     -2.32847107	     -0.36052889	    -19.92128037	     10.44068469	     -0.08068886	      0.21072244	     46.28406914	     -2.41566518	    -16.68210007	    -14.04427852	     -4.79582306	      4.69388391	     21.82945860	     20.62609504	     -3.52068356	     -6.06773847
      4.24500000	    -19.44069037	      3.97388113	     -6.66715310	     -1.30453496	     -0.04560120	     -0.32522243	      2.83882237	     -2.79069794	     -0.38115404	    -20.84502671	      9.74418616	      0.07022419	      0.59137589	     46.32795490	     -2.15653217	    -16.52059121	    -14.86015927	     -5.75012436	      3.73270405	     21.71323970	     20.76694625	     -3.81961357	     -6.04311632
      4.25000000	    -19.40525565	      4.28733782	     -6.63797642	     -1.29678192	     -0.04619555	     -0.32580293	      2.87783696	     -3.27590459	     -0.35116427	    -21.78093989	      8.97577257	      0.11698449	      0.96956309	     46.41731460	     -1.85417290	    -16.37422551	    -15.75084263	     -6.74238618	      2.73152228	     21.49359324	     20.94228749	     -4.17408234	     -5.98750019
      4.25500000	    -19.37762183	      4.61165194	     -6.61617461	     -1.28902394	     -0.04670398	     -0.32644019	      3.00358144	     -3.78335629	     -0.38496525	    -22.82268516	      8.07859880	      0.15365752	      1.46272352	     46.49930721	     -1.52447855	    -16.11526944	    -16.63323880	     -7.68946228	      1.59448682	     21.13632053	     21.12845967	     -4.52803760	     -5.96761267
      4.26000000	    -19.33770246	      4.90633105	     -6.48864905	     -1.28121395	     -0.04712344	     -0.32730327	      3.10980881	     -4.31176595	     -0.70419476	    -23.76646820	      6.87682373	      0.02658235	      3.93243148	     46.60574121	     -1.12151557	    -15.69076568	    -17.63448149	     -8.44380328	      0.60195446	     20.03832563	     21.29115139	     -4.87705685	     -6.00908157
      4.26500000	    -19.30543364	      5.28581228	     -6.49354533	     -1.27343680	     -0.04745165	     -0.32782684	      3.34421658	     -4.85015731	     -0.62135121	    -24.94673141	      5.76852203	     -0.14394654	      4.15142072	     46.67611606	     -0.75619396	    -15.40899124	    -18.54906047	     -9.14854644	     -0.52139524	     19.60155523	     21.48822242	     -5.28790963	     -5.94092143
      4.27000000	    -19.33289971	      5.59164406	     -6.36167778	     -1.26574955	     -0.04783688	     -0.32881563	      3.70513656	     -5.40258786	     -0.98794278	    -26.21274612	      4.54778460	     -0.03521365	      5.25740304	     46.84632736	     -0.29123760	    -14.74091200	    -19.53991116	     -9.67006249	     -1.72836111	     18.50054031	     21.70212897	     -5.62209215	     -5.94321205
      4.27500000	    -19.32498605	      5.99469144	     -6.21450888	     -1.25788250	     -0.04805871	     -0.32964683	      4.02734499	     -6.02874743	     -1.22275371	    -27.39028153	      3.02260367	     -0.47659299	      7.50124190	     46.95954501	      0.24919498	    -14.28204413	    -20.58394456	     -9.84602223	     -2.43642541	     16.61735633	     21.92106642	     -6.09311847	     -6.01782378
